# xmcd
#
# Track frame offsets: 
#        150
#        30838
#        52010
#        69878
#        94048
#        111735
#        131670
#        152105
#        175285
#        198470
#        221868
#        238723
#        261113
#
# Disc length: 3864 seconds
#
# Revision: 0
# Processed by: cddbd v1.5.1PL0 Copyright (c) Steve Scherf et al.
# Submitted via: ExactAudioCopy v0.95a5
#
DISCID=bd0f160d
DTITLE=Nu Civilization - Nu Civilization
DYEAR=1994
DGENRE=House
TTITLE0=When will we be free?
TTITLE1=I need someone
TTITLE2=You are (feat Tafuri)
TTITLE3=Street Jazz (feat Dwayne D. Kerr)
TTITLE4=New Breed (feat Disciples of Sound)
TTITLE5=Follow me now
TTITLE6=The Way
TTITLE7=Destiny (feat Chandra Simmons)
TTITLE8=All of me
TTITLE9=Life still goes on (feat Chanelle)
TTITLE10=I still believe
TTITLE11=Revelations
TTITLE12=Wake Up (Shay-Ama)
EXTD=
EXTT0=
EXTT1=
EXTT2=
EXTT3=
EXTT4=
EXTT5=
EXTT6=
EXTT7=
EXTT8=
EXTT9=
EXTT10=
EXTT11=
EXTT12=
PLAYORDER=
